<?xml version="1.0" encoding="utf-8"?>
<!-- Generator: Adobe Illustrator 26.0.3, SVG Export Plug-In . SVG Version: 6.00 Build 0)  -->
<svg version="1.0" id="Layer_1" xmlns="http://www.w3.org/2000/svg" xmlns:xlink="http://www.w3.org/1999/xlink" x="0px" y="0px"
	 viewBox="0 0 215 151.3" style="enable-background:new 0 0 215 151.3;" xml:space="preserve">
<style type="text/css">
	.st0{fill:#002B49;}
</style>
<path class="st0" d="M121,70.7c-0.8-0.5-1.7-1-2.7-1c-0.3,0-0.6,0.1-1.1,0.9c-0.6,0.8-1.4,3.6-1.8,5.8c-0.9,5.1-1.2,10.3-0.9,15.5
	c0.1,1.3,0.2,2.5,0.3,3.8c0.1,1-0.7,2-1.4,2.7c-0.1,0.1-1.1,0.9-1.6,0.9c-0.2,0-0.3-0.1-0.3-0.4c-0.2-1.5-0.3-3.1-0.4-4.7
	c-0.3-4.1-0.8-8.2-1.6-12.3c-1.1-5-2.8-9.8-5.1-14.4c-0.6-1.2,2.6-4.5,3.3-3.2c2.1,4.1,3.7,8.4,4.7,12.8c0.1-0.4,0.2-0.9,0.3-1.3
	c1.3-4.7,5.5-12.7,11.3-8.8C125.1,67.8,122.2,71.6,121,70.7z M133.6,53.8c-0.2,0.2-1.8,1.5-2,0.5c-0.1-0.3-0.2-0.5-0.8-0.8
	c0,0-0.5-0.1-0.8-0.2c-0.4-0.1-0.7-0.1-1.1-0.1c-2.3-0.1-4.5,0.3-6.7,0.8c-7.1,1.6-14.1,4.3-20.7,7.3c-1.5,0.7-2.9,1.4-4.4,2.1
	c0.4,1.6,0.8,3.1,1.2,4.7c2.3,9.8,4.3,19.9,5.2,30c0.1,1-0.7,2-1.4,2.7c-0.2,0.2-1.9,1.5-2,0.5c-0.9-9.7-2.7-19.4-4.9-29
	c-0.5-2.3-1.1-4.7-1.8-7c-7,3.8-13.8,8.2-19.7,13.5c-7.3,6.5-13.6,14.7-15,24.7c-0.1,0.9-0.8,1.8-1.5,2.5l0,0
	c-0.1,0.1-0.2,0.2-0.3,0.2c-0.3,0.2-0.9,0.5-1.2,0.4c-0.2,0-0.4-0.2-0.3-0.6c0.2-2.2,0.5-4.4,0.8-6.6c4-27.6,11.8-43.3,16-50.8
	c4.2-7.5,7.1-10,9-10.7c2.7-1,5.1,0.7,6.7,2.8c2.6,3.3,4.3,7.4,5.7,11.3c1.1,2.9,2,5.9,2.8,8.9c8.1-4.2,16.6-7.8,25.5-10.1
	c3-0.8,6.1-1.5,9.2-1.5c1.3,0,3.6,0.1,4,1.7C135.2,52.1,134.3,53.1,133.6,53.8z M92.7,62.9c-0.6-2.1-1.3-4.2-2-6.2
	c-1.4-3.9-2.9-8.1-5.3-11.5c-1.3-1.9-3.4-4.5-5.7-3.6c-2.3,1-7.8,10.2-12,21.7c-4.1,11.2-5.4,16.2-7.5,28.8
	c2.5-4.3,5.6-8.2,9.1-11.8C76.1,73.4,84.2,67.7,92.7,62.9z M128.4,68.1c-0.7,9.6,0.2,19.2,1.9,28.6c0.2,1,1.7-0.3,2-0.5
	c0.6-0.6,1.5-1.7,1.4-2.7c-1.6-9.2-2.5-18.6-1.8-27.9c0.1-1.1-1.1-0.5-1.5-0.2C129.4,66,128.4,67.1,128.4,68.1L128.4,68.1z
	 M159.5,88.2c0.5-1.8-0.7-13.9-3.5-20c-1.2-2.6-3-5.1-5.8-6c-3.5-1.1-7.2,1.3-9.8,3.3c-0.8,0.6-1.7,1.6-1.8,2.7
	c-0.1,1.1,1.1,0.5,1.5,0.2c2.3-1.8,5-3.2,8-2.2c2.5,0.9,4,3.7,5,5.9c1.8,4.1,2.6,8.8,2.9,13.4c-2.8-1.8-6-3.3-9.4-3.3
	c-3.4,0-6.2,2-7.8,5c-1.2,2.3-0.8,4.8,1,6.6c2.5,2.5,6.7,2.5,10,2h0.1c1-0.1,3.8-0.4,4.5-0.6c1-0.3,0.5-1.1,0.1-1.6
	c-0.6-0.7-1.6-1.8-2.6-1.6c-0.1,0-0.1,0-0.2,0c-0.8,0.1-1.6,0.2-2.5,0.2h-0.1l0,0c-2.1,0-4.2-0.5-5.9-1.7c-0.7-0.6-1.3-1.3-1.6-2.2
	c-0.1-0.4-0.2-0.8-0.2-1.1c0-0.2,0-0.4,0-0.5s0.4-0.3,0.4-0.3c0.7-0.3,2.2-0.4,3.2-0.3c4.2,0.4,8,3,11.1,5.5
	C157.3,92.4,159,90,159.5,88.2z M157.2,103.3c-1.3,0-2.3-1-2.3-2.3c0-1.4,1.1-2.3,2.3-2.3s2.3,0.9,2.3,2.3S158.4,103.3,157.2,103.3z
	 M157.2,99c-1,0-1.8,0.8-1.8,1.9s0.7,1.9,1.8,1.9c1,0,1.8-0.8,1.8-1.9S158.2,99,157.2,99z M156.7,102.3h-0.4v-2.6h1
	c0.6,0,0.9,0.2,0.9,0.7s-0.3,0.7-0.7,0.7l0.7,1.1h-0.5l-0.7-1.1h-0.4L156.7,102.3L156.7,102.3z M157.2,100.8c0.3,0,0.6,0,0.6-0.4
	c0-0.3-0.3-0.4-0.6-0.4h-0.5v0.8H157.2z"/>
</svg>
